<?xml version="1.0" encoding="UTF-8" standalone="no"?>
<!-- Created with Inkscape (http://www.inkscape.org/) -->

<svg
   width="82.626221mm"
   height="137.49484mm"
   viewBox="0 0 82.626225 137.49484"
   version="1.1"
   id="svg5"
   inkscape:version="1.1.1 (3bf5ae0d25, 2021-09-20)"
   sodipodi:docname="cryptickle imgs.svg"
   xmlns:inkscape="http://www.inkscape.org/namespaces/inkscape"
   xmlns:sodipodi="http://sodipodi.sourceforge.net/DTD/sodipodi-0.dtd"
   xmlns="http://www.w3.org/2000/svg"
   xmlns:svg="http://www.w3.org/2000/svg">
  <sodipodi:namedview
     id="namedview7"
     pagecolor="#ffa685"
     bordercolor="#666666"
     borderopacity="1.0"
     inkscape:pageshadow="2"
     inkscape:pageopacity="0"
     inkscape:pagecheckerboard="0"
     inkscape:document-units="mm"
     showgrid="false"
     inkscape:zoom="0.90583672"
     inkscape:cx="-861.08234"
     inkscape:cy="850.5948"
     inkscape:window-width="1920"
     inkscape:window-height="991"
     inkscape:window-x="-9"
     inkscape:window-y="1341"
     inkscape:window-maximized="1"
     inkscape:current-layer="layer1"
     fit-margin-top="0"
     fit-margin-left="0"
     fit-margin-right="0"
     fit-margin-bottom="0" />
  <defs
     id="defs2" />
  <g
     inkscape:label="Layer 1"
     inkscape:groupmode="layer"
     id="layer1"
     transform="translate(-20.242984,-79.705202)">
    <path
       style="fill:#000001;fill-opacity:1;stroke-width:0.0581559"
       d="m 36.008888,110.29168 c -4.044506,-0.30538 -7.982079,-2.39554 -10.506298,-5.57716 -1.705966,-2.15024 -2.718121,-4.49425 -3.14167,-7.275637 -0.120028,-0.788145 -0.13727,-3.005792 -0.02984,-3.768837 0.282499,-1.994202 0.924089,-3.939232 1.822481,-5.524805 1.615547,-2.851114 4.141026,-5.175826 6.99466,-6.438582 1.177542,-0.521097 2.591096,-0.942425 3.67782,-1.09624 0.494274,-0.06996 0.539566,-0.06731 0.752236,0.04244 0.309356,0.159817 0.488006,0.437176 0.488006,0.757905 0,0.386115 -0.122349,0.554785 -0.729323,1.004992 -2.422194,1.796818 -3.93459,4.491895 -4.278993,7.625242 -0.07726,0.703064 -0.03614,2.00143 0.08621,2.727737 0.681412,4.041057 3.649769,7.337535 7.568377,8.405095 2.818322,0.76779 5.901337,0.31931 8.452247,-1.229265 1.210898,-0.735159 2.398321,-1.848642 3.145251,-2.949359 0.243373,-0.358461 0.481209,-0.503988 0.824485,-0.504253 0.323613,-2.32e-4 0.60263,0.170759 0.758701,0.464133 0.142907,0.269236 0.136607,0.404849 -0.06598,1.406061 -0.883139,4.356613 -3.788101,8.157743 -7.851672,10.273703 -2.406808,1.25327 -5.311737,1.85739 -7.96739,1.65693 z m 2.467188,-12.348278 c -0.312672,-0.154844 -0.489864,-0.468179 -0.489864,-0.867026 0,-1.022599 -0.514499,-2.205114 -1.293923,-2.974094 -0.781049,-0.770505 -1.941316,-1.275455 -2.930658,-1.275455 -0.381042,0 -0.725246,-0.179048 -0.882477,-0.458629 -0.341651,-0.607903 0.110413,-1.286098 0.857476,-1.286098 1.313221,0 2.715535,-0.777435 3.511936,-1.947086 0.433794,-0.637213 0.737646,-1.585474 0.737646,-2.302463 0,-0.379881 0.170428,-0.695537 0.46546,-0.86129 0.611749,-0.343839 1.279202,0.118703 1.279202,0.88629 0,0.9973 0.509425,2.160253 1.286894,2.937688 0.779756,0.779756 1.94556,1.286861 2.958344,1.286861 0.416652,0 0.712911,0.164791 0.866362,0.481706 0.153186,0.316651 0.153849,0.463802 0.0021,0.77591 -0.146554,0.303056 -0.482801,0.487111 -0.889672,0.487111 -0.997233,0 -2.160219,0.509426 -2.937654,1.286861 -0.777435,0.777435 -1.286861,1.940421 -1.286861,2.937688 0,0.406871 -0.184022,0.742951 -0.487144,0.889671 -0.310019,0.150202 -0.468245,0.150534 -0.767654,0.002 z m 6.978711,-8.723373 c -0.295762,-0.146554 -0.489598,-0.470665 -0.49056,-0.821003 -0.0021,-0.623885 -0.290456,-1.278738 -0.780949,-1.770027 -0.488637,-0.489598 -1.128801,-0.775644 -1.74433,-0.779491 -0.338236,-0.002 -0.686717,-0.193637 -0.836388,-0.460021 -0.159818,-0.28482 -0.161144,-0.540594 -0.0066,-0.820573 0.16247,-0.28913 0.457668,-0.442879 0.929726,-0.484127 1.299162,-0.113729 2.317019,-1.145479 2.419375,-2.45293 0.03879,-0.496163 0.18568,-0.78589 0.482569,-0.952803 0.271557,-0.152523 0.52113,-0.156502 0.801739,-0.01326 0.296093,0.152191 0.424411,0.401168 0.48479,0.940866 0.06598,0.588639 0.228121,1.014973 0.548353,1.441009 0.443841,0.590462 1.132514,0.970111 1.880804,1.036955 0.521296,0.04675 0.7778,0.184354 0.930422,0.499546 0.153517,0.31665 0.153849,0.463834 0.0021,0.775909 -0.140255,0.289462 -0.481077,0.486714 -0.84355,0.487808 -0.598785,0.0021 -1.261596,0.298414 -1.745059,0.780949 -0.489598,0.488637 -0.775678,1.128801 -0.779524,1.74433 -0.0021,0.363269 -0.199275,0.703594 -0.488504,0.843583 -0.310019,0.150202 -0.468245,0.150534 -0.76772,0.0021 z"
       id="path163472-2-2"
       inkscape:export-filename="C:\wamp64\www\JS Projects\x-word\src\modeLight.png"
       inkscape:export-xdpi="95.978104"
       inkscape:export-ydpi="95.978104" />
    <path
       style="fill:#aaeeff;fill-opacity:1;stroke-width:0.0581559"
       d="m 84.746353,109.43546 c -4.044505,-0.30538 -7.982079,-2.39554 -10.506297,-5.57716 -1.705967,-2.15024 -2.718121,-4.494249 -3.14167,-7.275633 -0.120029,-0.788145 -0.13727,-3.005793 -0.02984,-3.768837 0.282498,-1.994202 0.924088,-3.939232 1.822481,-5.524805 1.615547,-2.851114 4.141025,-5.175826 6.994659,-6.438582 1.177542,-0.521097 2.591097,-0.942425 3.677821,-1.096241 0.494273,-0.06996 0.539566,-0.06731 0.752236,0.04244 0.309356,0.159818 0.488006,0.437177 0.488006,0.757906 0,0.386114 -0.12235,0.554785 -0.729324,1.004992 -2.422194,1.796817 -3.934589,4.491894 -4.278992,7.625242 -0.07726,0.703064 -0.03614,2.00143 0.08621,2.727737 0.681412,4.041057 3.64977,7.337537 7.568378,8.405101 2.818322,0.76778 5.901337,0.3193 8.452247,-1.229271 1.210898,-0.73516 2.39832,-1.848642 3.145251,-2.949359 0.243373,-0.358461 0.481209,-0.503988 0.824485,-0.504253 0.323606,-2.32e-4 0.602626,0.170759 0.758696,0.464133 0.14291,0.269236 0.13661,0.404849 -0.066,1.406061 -0.883138,4.356619 -3.788099,8.157749 -7.85167,10.273699 -2.406809,1.25327 -5.311737,1.8574 -7.96739,1.65693 z m 2.467188,-12.348275 c -0.312671,-0.154843 -0.489863,-0.468178 -0.489863,-0.867025 0,-1.022599 -0.514499,-2.205114 -1.293923,-2.974094 -0.781049,-0.770505 -1.941317,-1.275455 -2.930659,-1.275455 -0.381041,0 -0.725245,-0.179049 -0.882476,-0.458629 -0.341651,-0.607903 0.110413,-1.286099 0.857476,-1.286099 1.313221,0 2.715535,-0.777435 3.511936,-1.947085 0.433794,-0.637214 0.737646,-1.585474 0.737646,-2.302464 0,-0.379881 0.170428,-0.695536 0.46546,-0.861289 0.611748,-0.343839 1.279201,0.118703 1.279201,0.88629 0,0.9973 0.509426,2.160253 1.286894,2.937687 0.779756,0.779756 1.945561,1.286861 2.958345,1.286861 0.416652,0 0.712911,0.164791 0.866362,0.481707 0.153186,0.31665 0.153849,0.463802 0.0021,0.77591 -0.146555,0.303056 -0.482801,0.487111 -0.889672,0.487111 -0.997233,0 -2.160219,0.509426 -2.937654,1.286861 -0.777435,0.777435 -1.286861,1.940421 -1.286861,2.937687 0,0.406871 -0.184022,0.742952 -0.487145,0.889672 -0.310019,0.150202 -0.468244,0.150533 -0.767653,0.002 z m 6.978712,-8.723372 c -0.295762,-0.146555 -0.489598,-0.470666 -0.49056,-0.821004 -0.0021,-0.623884 -0.290456,-1.278737 -0.78095,-1.770026 -0.488636,-0.489598 -1.128801,-0.775645 -1.744329,-0.779491 -0.338236,-0.002 -0.686717,-0.193637 -0.836389,-0.460022 -0.159817,-0.284819 -0.161143,-0.540593 -0.0066,-0.820572 0.16247,-0.28913 0.457668,-0.44288 0.929726,-0.484127 1.299162,-0.113729 2.317019,-1.145479 2.419375,-2.452931 0.03879,-0.496163 0.18568,-0.78589 0.482569,-0.952802 0.271556,-0.152523 0.52113,-0.156502 0.801739,-0.01326 0.296093,0.152191 0.424411,0.401168 0.48479,0.940866 0.06598,0.588638 0.228121,1.014973 0.548352,1.441008 0.443842,0.590462 1.132515,0.970111 1.880805,1.036956 0.521296,0.04675 0.7778,0.184354 0.930422,0.499545 0.153517,0.316651 0.153849,0.463835 0.0021,0.77591 -0.140255,0.289462 -0.481077,0.486713 -0.843551,0.487808 -0.598784,0.0021 -1.261595,0.298414 -1.745059,0.780949 -0.489598,0.488637 -0.775677,1.128801 -0.779524,1.74433 -0.0021,0.363269 -0.199274,0.703594 -0.488503,0.843583 -0.310019,0.150202 -0.468245,0.150534 -0.76772,0.0021 z"
       id="path163472-2-2-9"
       inkscape:export-filename="C:\wamp64\www\JS Projects\x-word\src\modeDark.png"
       inkscape:export-xdpi="95.978104"
       inkscape:export-ydpi="95.978104" />
    <text
       xml:space="preserve"
       style="font-style:normal;font-variant:normal;font-weight:normal;font-stretch:normal;font-size:7.7611px;line-height:1.25;font-family:'Wingdings 2';-inkscape-font-specification:'Wingdings 2, ';letter-spacing:0px;stroke-width:0.264583"
       x="50.385044"
       y="149.11052"
       id="text4586"><tspan
         sodipodi:role="line"
         id="tspan4584"
         style="font-style:normal;font-variant:normal;font-weight:normal;font-stretch:normal;font-family:'Wingdings 2';-inkscape-font-specification:'Wingdings 2, ';stroke-width:0.264583"
         x="50.385044"
         y="149.11052" /></text>
    <path
       id="rect863"
       style="fill:none;stroke:#000000;stroke-width:3.932;stroke-linejoin:miter;stroke-miterlimit:4;stroke-dasharray:none;stroke-opacity:1"
       d="m 22.208984,135.08594 c 0,9.75 0,19.5 0,29.25 9.926433,0 19.852865,0 29.779297,0 0,-9.92643 0,-19.85287 0,-29.7793 -9.926432,0 -19.852864,0 -29.779297,0 0,0.17643 0,0.35287 0,0.5293 z" />
    <rect
       style="fill:none;fill-opacity:1;stroke:#aaeeff;stroke-width:3.932;stroke-linejoin:miter;stroke-miterlimit:4;stroke-dasharray:none;stroke-opacity:1"
       id="rect863-9"
       width="28.719673"
       height="28.719673"
       x="72.183533"
       y="134.96761"
       ry="0"
       rx="0"
       inkscape:export-filename="C:\wamp64\www\JS Projects\x-word\src\revealDark.png"
       inkscape:export-xdpi="95.978104"
       inkscape:export-ydpi="95.978104" />
    <rect
       style="fill:#ffffe7;fill-opacity:1;stroke:#000000;stroke-width:2.94992;stroke-linejoin:miter;stroke-miterlimit:4;stroke-dasharray:none;stroke-opacity:1"
       id="rect863-9-0"
       width="27.050077"
       height="27.050077"
       x="-278.28204"
       y="269.36877"
       ry="0"
       rx="0"
       inkscape:export-filename="C:\wamp64\www\JS Projects\x-word\src\favicon.png"
       inkscape:export-xdpi="95.978104"
       inkscape:export-ydpi="95.978104" />
    <circle
       style="fill:#000000;fill-opacity:1;stroke:none;stroke-width:4.16742;stroke-linejoin:round;stroke-miterlimit:4;stroke-dasharray:none;stroke-opacity:0.280943"
       id="path82358-1-76"
       cx="35.812305"
       cy="201.68008"
       r="15.519967"
       inkscape:export-filename="C:\wamp64\www\JS Projects\x-word\src\checkLight.png"
       inkscape:export-xdpi="95.978104"
       inkscape:export-ydpi="95.978104" />
    <text
       xml:space="preserve"
       style="font-size:25.2383px;line-height:1.25;font-family:'Wingdings 2';-inkscape-font-specification:'Wingdings 2, ';letter-spacing:0px;fill:#ffffff;fill-opacity:1;stroke-width:0.860397"
       x="25.87545"
       y="210.79941"
       id="text8218"><tspan
         sodipodi:role="line"
         id="tspan8216"
         style="fill:#ffffff;fill-opacity:1;stroke-width:0.860397"
         x="25.87545"
         y="210.79941">🡆</tspan></text>
    <circle
       style="fill:#aaeeff;fill-opacity:1;stroke:none;stroke-width:4.16742;stroke-linejoin:round;stroke-miterlimit:4;stroke-dasharray:none;stroke-opacity:0.280943"
       id="path82358-1-7-6"
       cx="84.962524"
       cy="201.68008"
       r="15.519967"
       inkscape:export-filename="C:\wamp64\www\JS Projects\x-word\src\checkDark.png"
       inkscape:export-xdpi="95.978104"
       inkscape:export-ydpi="95.978104" />
    <text
       xml:space="preserve"
       style="font-style:normal;font-variant:normal;font-weight:normal;font-stretch:normal;font-size:23.9732px;line-height:1.25;font-family:sans-serif;-inkscape-font-specification:sans-serif;letter-spacing:0px;stroke:#000200;stroke-width:0.817266;stroke-opacity:1"
       x="30.280081"
       y="158.33673"
       id="text17173"><tspan
         sodipodi:role="line"
         id="tspan17171"
         style="font-style:normal;font-variant:normal;font-weight:normal;font-stretch:normal;font-family:sans-serif;-inkscape-font-specification:sans-serif;stroke:#000200;stroke-width:0.817266;stroke-opacity:1"
         x="30.280081"
         y="158.33673">?</tspan></text>
    <text
       xml:space="preserve"
       style="font-style:normal;font-variant:normal;font-weight:normal;font-stretch:normal;font-size:22.6654px;line-height:1.25;font-family:sans-serif;-inkscape-font-specification:sans-serif;letter-spacing:0px;fill:#aaeeff;fill-opacity:1;stroke:#aaeeff;stroke-width:0.772683;stroke-opacity:1"
       x="80.096786"
       y="157.73291"
       id="text17173-5"><tspan
         sodipodi:role="line"
         id="tspan17171-5"
         style="font-style:normal;font-variant:normal;font-weight:normal;font-stretch:normal;font-family:sans-serif;-inkscape-font-specification:sans-serif;fill:#aaeeff;fill-opacity:1;stroke:#aaeeff;stroke-width:0.772683;stroke-opacity:1"
         x="80.096786"
         y="157.73291">?</tspan></text>
    <text
       xml:space="preserve"
       style="font-size:25.2383px;line-height:1.25;font-family:'Wingdings 2';-inkscape-font-specification:'Wingdings 2, ';letter-spacing:0px;fill:#000612;fill-opacity:1;stroke-width:0.860397"
       x="75.238182"
       y="211.09149"
       id="text8218-8"><tspan
         sodipodi:role="line"
         id="tspan8216-3"
         style="fill:#000612;fill-opacity:1;stroke-width:0.860397"
         x="75.238182"
         y="211.09149">🡆</tspan></text>
    <text
       xml:space="preserve"
       style="font-size:29.9807px;line-height:1.25;font-family:Lora;-inkscape-font-specification:Lora;letter-spacing:0px;fill:#000000;fill-opacity:1;stroke-width:1.02206;stroke:#000000;stroke-opacity:1"
       x="-272.83679"
       y="290.38901"
       id="text4799"
       inkscape:export-filename="C:\wamp64\www\JS Projects\x-word\src\favicon.png"
       inkscape:export-xdpi="95.978104"
       inkscape:export-ydpi="95.978104"><tspan
         sodipodi:role="line"
         id="tspan4797"
         style="fill:#000000;fill-opacity:1;stroke-width:1.02206;stroke:#000000;stroke-opacity:1"
         x="-272.83679"
         y="290.38901">c</tspan></text>
  </g>
</svg>
