<?xml version="1.0" encoding="UTF-8"?>
<!-- Created with Inkscape (http://www.inkscape.org/) -->
<svg width="31.04mm" height="31.04mm" version="1.1" viewBox="0 0 31.04 31.04" xmlns="http://www.w3.org/2000/svg">
 <g transform="translate(-20.292 -186.16)">
  <path d="m36.009 110.29c-4.0445-0.30538-7.9821-2.3955-10.506-5.5772-1.706-2.1502-2.7181-4.4942-3.1417-7.2756-0.12003-0.78814-0.13727-3.0058-0.02984-3.7688 0.2825-1.9942 0.92409-3.9392 1.8225-5.5248 1.6155-2.8511 4.141-5.1758 6.9947-6.4386 1.1775-0.5211 2.5911-0.94242 3.6778-1.0962 0.49427-0.06996 0.53957-0.06731 0.75224 0.04244 0.30936 0.15982 0.48801 0.43718 0.48801 0.7579 0 0.38612-0.12235 0.55478-0.72932 1.005-2.4222 1.7968-3.9346 4.4919-4.279 7.6252-0.07726 0.70306-0.03614 2.0014 0.08621 2.7277 0.68141 4.0411 3.6498 7.3375 7.5684 8.4051 2.8183 0.76779 5.9013 0.31931 8.4522-1.2293 1.2109-0.73516 2.3983-1.8486 3.1453-2.9494 0.24337-0.35846 0.48121-0.50399 0.82448-0.50425 0.32361-2.32e-4 0.60263 0.17076 0.7587 0.46413 0.14291 0.26924 0.13661 0.40485-0.06598 1.4061-0.88314 4.3566-3.7881 8.1577-7.8517 10.274-2.4068 1.2533-5.3117 1.8574-7.9674 1.6569zm2.4672-12.348c-0.31267-0.15484-0.48986-0.46818-0.48986-0.86703 0-1.0226-0.5145-2.2051-1.2939-2.9741-0.78105-0.7705-1.9413-1.2755-2.9307-1.2755-0.38104 0-0.72525-0.17905-0.88248-0.45863-0.34165-0.6079 0.11041-1.2861 0.85748-1.2861 1.3132 0 2.7155-0.77744 3.5119-1.9471 0.43379-0.63721 0.73765-1.5855 0.73765-2.3025 0-0.37988 0.17043-0.69554 0.46546-0.86129 0.61175-0.34384 1.2792 0.1187 1.2792 0.88629 0 0.9973 0.50942 2.1603 1.2869 2.9377 0.77976 0.77976 1.9456 1.2869 2.9583 1.2869 0.41665 0 0.71291 0.16479 0.86636 0.48171 0.15319 0.31665 0.15385 0.4638 0.0021 0.77591-0.14655 0.30306-0.4828 0.48711-0.88967 0.48711-0.99723 0-2.1602 0.50943-2.9377 1.2869s-1.2869 1.9404-1.2869 2.9377c0 0.40687-0.18402 0.74295-0.48714 0.88967-0.31002 0.1502-0.46824 0.15053-0.76765 2e-3zm6.9787-8.7234c-0.29576-0.14655-0.4896-0.47066-0.49056-0.821-0.0021-0.62388-0.29046-1.2787-0.78095-1.77-0.48864-0.4896-1.1288-0.77564-1.7443-0.77949-0.33824-2e-3 -0.68672-0.19364-0.83639-0.46002-0.15982-0.28482-0.16114-0.54059-0.0066-0.82057 0.16247-0.28913 0.45767-0.44288 0.92973-0.48413 1.2992-0.11373 2.317-1.1455 2.4194-2.4529 0.03879-0.49616 0.18568-0.78589 0.48257-0.9528 0.27156-0.15252 0.52113-0.1565 0.80174-0.01326 0.29609 0.15219 0.42441 0.40117 0.48479 0.94087 0.06598 0.58864 0.22812 1.015 0.54835 1.441 0.44384 0.59046 1.1325 0.97011 1.8808 1.037 0.5213 0.04675 0.7778 0.18435 0.93042 0.49955 0.15352 0.31665 0.15385 0.46383 0.0021 0.77591-0.14026 0.28946-0.48108 0.48671-0.84355 0.48781-0.59878 0.0021-1.2616 0.29841-1.7451 0.78095-0.4896 0.48864-0.77568 1.1288-0.77952 1.7443-0.0021 0.36327-0.19928 0.70359-0.4885 0.84358-0.31002 0.1502-0.46824 0.15053-0.76772 0.0021z" fill="#000001" stroke-width=".058156"/>
  <path d="m84.746 109.44c-4.0445-0.30538-7.9821-2.3955-10.506-5.5772-1.706-2.1502-2.7181-4.4942-3.1417-7.2756-0.12003-0.78814-0.13727-3.0058-0.02984-3.7688 0.2825-1.9942 0.92409-3.9392 1.8225-5.5248 1.6155-2.8511 4.141-5.1758 6.9947-6.4386 1.1775-0.5211 2.5911-0.94242 3.6778-1.0962 0.49427-0.06996 0.53957-0.06731 0.75224 0.04244 0.30936 0.15982 0.48801 0.43718 0.48801 0.75791 0 0.38611-0.12235 0.55478-0.72932 1.005-2.4222 1.7968-3.9346 4.4919-4.279 7.6252-0.07726 0.70306-0.03614 2.0014 0.08621 2.7277 0.68141 4.0411 3.6498 7.3375 7.5684 8.4051 2.8183 0.76778 5.9013 0.3193 8.4522-1.2293 1.2109-0.73516 2.3983-1.8486 3.1453-2.9494 0.24337-0.35846 0.48121-0.50399 0.82448-0.50425 0.32361-2.32e-4 0.60263 0.17076 0.7587 0.46413 0.14291 0.26924 0.13661 0.40485-0.066 1.4061-0.88314 4.3566-3.7881 8.1577-7.8517 10.274-2.4068 1.2533-5.3117 1.8574-7.9674 1.6569zm2.4672-12.348c-0.31267-0.15484-0.48986-0.46818-0.48986-0.86702 0-1.0226-0.5145-2.2051-1.2939-2.9741-0.78105-0.7705-1.9413-1.2755-2.9307-1.2755-0.38104 0-0.72524-0.17905-0.88248-0.45863-0.34165-0.6079 0.11041-1.2861 0.85748-1.2861 1.3132 0 2.7155-0.77744 3.5119-1.9471 0.43379-0.63721 0.73765-1.5855 0.73765-2.3025 0-0.37988 0.17043-0.69554 0.46546-0.86129 0.61175-0.34384 1.2792 0.1187 1.2792 0.88629 0 0.9973 0.50943 2.1603 1.2869 2.9377 0.77976 0.77976 1.9456 1.2869 2.9583 1.2869 0.41665 0 0.71291 0.16479 0.86636 0.48171 0.15319 0.31665 0.15385 0.4638 0.0021 0.77591-0.14656 0.30306-0.4828 0.48711-0.88967 0.48711-0.99723 0-2.1602 0.50943-2.9377 1.2869s-1.2869 1.9404-1.2869 2.9377c0 0.40687-0.18402 0.74295-0.48714 0.88967-0.31002 0.1502-0.46824 0.15053-0.76765 2e-3zm6.9787-8.7234c-0.29576-0.14656-0.4896-0.47067-0.49056-0.821-0.0021-0.62388-0.29046-1.2787-0.78095-1.77-0.48864-0.4896-1.1288-0.77564-1.7443-0.77949-0.33824-2e-3 -0.68672-0.19364-0.83639-0.46002-0.15982-0.28482-0.16114-0.54059-0.0066-0.82057 0.16247-0.28913 0.45767-0.44288 0.92973-0.48413 1.2992-0.11373 2.317-1.1455 2.4194-2.4529 0.03879-0.49616 0.18568-0.78589 0.48257-0.9528 0.27156-0.15252 0.52113-0.1565 0.80174-0.01326 0.29609 0.15219 0.42441 0.40117 0.48479 0.94087 0.06598 0.58864 0.22812 1.015 0.54835 1.441 0.44384 0.59046 1.1325 0.97011 1.8808 1.037 0.5213 0.04675 0.7778 0.18435 0.93042 0.49954 0.15352 0.31665 0.15385 0.46384 0.0021 0.77591-0.14026 0.28946-0.48108 0.48671-0.84355 0.48781-0.59878 0.0021-1.2616 0.29841-1.7451 0.78095-0.4896 0.48864-0.77568 1.1288-0.77952 1.7443-0.0021 0.36327-0.19927 0.70359-0.4885 0.84358-0.31002 0.1502-0.46824 0.15053-0.76772 0.0021z" fill="#aef" stroke-width=".058156"/>
  <text x="50.385044" y="149.11052" font-family="'Wingdings 2'" font-size="7.7611px" letter-spacing="0px" stroke-width=".26458" style="line-height:1.25" xml:space="preserve"><tspan x="50.385044" y="149.11052" font-family="'Wingdings 2'" stroke-width=".26458"/></text>
  <path d="m22.209 135.09v29.25h29.779v-29.779h-29.779v0.5293z" fill="none" stroke="#000" stroke-width="3.932"/>
  <rect x="72.184" y="134.97" width="28.72" height="28.72" rx="0" ry="0" fill="none" stroke="#aef" stroke-width="3.932"/>
  <g>
   <rect x="52.361" y="251.84" width="27.05" height="27.05" rx="0" ry="0" fill="#ffffe7" stroke="#000" stroke-width="2.9499"/>
   <circle cx="35.812" cy="201.68" r="15.52"/>
   <text x="25.583363" y="210.79941" fill="#ffffff" font-family="'Wingdings 2'" font-size="25.238px" letter-spacing="0px" stroke-width=".8604" style="line-height:1.25" xml:space="preserve"><tspan x="25.583363" y="210.79941" fill="#ffffff" stroke-width=".8604">🡆</tspan></text>
   <circle cx="84.963" cy="201.68" r="15.52" fill="#aef"/>
  </g>
  <text x="30.280081" y="158.33673" font-family="sans-serif" font-size="23.973px" letter-spacing="0px" stroke="#000200" stroke-width=".81727" style="line-height:1.25" xml:space="preserve"><tspan x="30.280081" y="158.33673" font-family="sans-serif" stroke="#000200" stroke-width=".81727">?</tspan></text>
  <g letter-spacing="0px">
   <text x="80.096786" y="157.73291" fill="#aaeeff" font-family="sans-serif" font-size="22.665px" stroke="#aaeeff" stroke-width=".77268" style="line-height:1.25" xml:space="preserve"><tspan x="80.096786" y="157.73291" fill="#aaeeff" font-family="sans-serif" stroke="#aaeeff" stroke-width=".77268">?</tspan></text>
   <text x="74.946098" y="211.09149" fill="#000612" font-family="'Wingdings 2'" font-size="25.238px" stroke-width=".8604" style="line-height:1.25" xml:space="preserve"><tspan x="74.946098" y="211.09149" fill="#000612" stroke-width=".8604">🡆</tspan></text>
   <text x="57.805946" y="272.86377" fill="#000000" font-family="Lora" font-size="29.981px" stroke="#000000" stroke-width="1.0221" style="line-height:1.25" xml:space="preserve"><tspan x="57.805946" y="272.86377" fill="#000000" stroke="#000000" stroke-width="1.0221">c</tspan></text>
  </g>
  <path d="m-611.99-36.649c-0.30535-0.03835-0.60643-0.15668-0.83716-0.329-0.10178-0.07601-1.5021-1.4589-1.6675-1.6468-0.11908-0.13524-0.12744-0.15312-0.13363-0.28599-5e-3 -0.10361-3e-3 -0.11598 0.031-0.1883 0.0473-0.10108 0.10541-0.16383 0.1984-0.21426 0.0737-0.03999 0.0789-0.04095 0.21415-0.04036 0.16414 7.36e-4 0.13293-0.01047 0.58341 0.20902 0.17835 0.08689 0.32603 0.15799 0.32819 0.15799 2e-3 0 5e-3 -0.62249 7e-3 -1.3833l3e-3 -1.3833 0.0394-0.08015c0.0494-0.10028 0.14443-0.19026 0.24081-0.22795 0.10435-0.04081 0.25073-0.03922 0.34307 0.0037 0.13685 0.06362 0.25193 0.20994 0.26762 0.34025 0.0102 0.08439 0.0188 0.35319 0.0189 0.58713l1e-4 0.22472 0.0753-0.02384c0.0976-0.03089 0.24186-0.02579 0.32544 0.01151 0.0697 0.03112 0.17807 0.13129 0.22071 0.20406 0.0237 0.04047 0.0364 0.05156 0.0515 0.04518 0.1145-0.0483 0.14698-0.05615 0.23098-0.0559 0.16289 5.06e-4 0.29851 0.07877 0.39333 0.22699l0.0397 0.06211 0.0999-0.03476c0.11392-0.03965 0.15675-0.04248 0.2551-0.01687 0.13669 0.0356 0.24603 0.12714 0.30685 0.25689l0.032 0.0684 3e-3 1.0546c2e-3 0.64688-1e-3 1.1019-9e-3 1.177-7e-3 0.07336-0.0273 0.16991-0.05 0.24106-0.16696 0.52394-0.57269 0.89666-1.1078 1.0177-0.12081 0.02732-0.376 0.03867-0.50513 0.02245zm0.38021-0.22943c0.26452-0.03679 0.50589-0.16008 0.70378-0.35947 0.15642-0.1576 0.25291-0.31946 0.32187-0.53988l0.0332-0.10606 4e-3 -1.1278 4e-3 -1.1278-0.0516-0.0552c-0.1123-0.12005-0.2977-0.10063-0.36802 0.03856-0.0258 0.05113-0.0271 0.06744-0.0276 0.34341-4.6e-4 0.32026-8e-3 0.38671-0.0479 0.41886-0.0377 0.03057-0.10008 0.02743-0.14018-0.0071l-0.0333-0.02859-0.0101-0.4681-0.0101-0.4681-0.031-0.04067c-0.0833-0.10919-0.2286-0.12774-0.33029-0.04218-0.0765 0.06433-0.0761 0.0616-0.0832 0.56206l-6e-3 0.45605-0.0338 0.02907c-0.0542 0.04658-0.13448 0.03585-0.16778-0.02243-0.0116-0.02025-0.0168-0.16642-0.0214-0.59524l-6e-3 -0.56839-0.0369-0.0463c-0.0545-0.06848-0.12946-0.10379-0.20309-0.09568-0.0743 0.0082-0.14418 0.0534-0.17412 0.11267-0.0211 0.04177-0.0233 0.08666-0.0292 0.59358-4e-3 0.36948-0.0109 0.56064-0.0202 0.58591-0.0319 0.086-0.17892 0.0831-0.19779-0.0039-4e-3 -0.01848-0.011-0.53978-0.0155-1.1584l-8e-3 -1.1248-0.035-0.04824c-0.0656-0.09051-0.19743-0.12079-0.29223-0.0671-0.0679 0.03848-0.0996 0.09142-0.10812 0.18084-4e-3 0.0412-8e-3 0.71128-0.01 1.4891l-3e-3 1.4142-0.0407 0.03636c-0.0317 0.0283-0.0482 0.03486-0.0746 0.02959-0.0186-0.0037-0.20913-0.09176-0.42333-0.19564-0.53767-0.26074-0.50845-0.24866-0.60235-0.24895-0.12517-3.77e-4 -0.18877 0.04882-0.21512 0.1664-0.0237 0.10579-0.0332 0.09492 0.83664 0.96481 0.71352 0.71361 0.80927 0.80505 0.91754 0.87631 0.19288 0.12695 0.39352 0.208 0.5842 0.236 0.0497 0.0073 0.10396 0.01526 0.12053 0.0177 0.0667 0.0098 0.24478 0.0069 0.33309-0.0053z" stroke-width=".012053"/>
 </g>
</svg>
