<?xml version="1.0" encoding="UTF-8"?>
<!-- Created with Inkscape (http://www.inkscape.org/) -->
<svg width="29.731mm" height="29.768mm" version="1.1" viewBox="0 0 29.731 29.768" xmlns="http://www.w3.org/2000/svg">
 <g transform="translate(-70.997 -79.705)">
  <path d="m36.009 110.29c-4.0445-0.30538-7.9821-2.3955-10.506-5.5772-1.706-2.1502-2.7181-4.4942-3.1417-7.2756-0.12003-0.78814-0.13727-3.0058-0.02984-3.7688 0.2825-1.9942 0.92409-3.9392 1.8225-5.5248 1.6155-2.8511 4.141-5.1758 6.9947-6.4386 1.1775-0.5211 2.5911-0.94242 3.6778-1.0962 0.49427-0.06996 0.53957-0.06731 0.75224 0.04244 0.30936 0.15982 0.48801 0.43718 0.48801 0.7579 0 0.38612-0.12235 0.55478-0.72932 1.005-2.4222 1.7968-3.9346 4.4919-4.279 7.6252-0.07726 0.70306-0.03614 2.0014 0.08621 2.7277 0.68141 4.0411 3.6498 7.3375 7.5684 8.4051 2.8183 0.76779 5.9013 0.31931 8.4522-1.2293 1.2109-0.73516 2.3983-1.8486 3.1453-2.9494 0.24337-0.35846 0.48121-0.50399 0.82448-0.50425 0.32361-2.32e-4 0.60263 0.17076 0.7587 0.46413 0.14291 0.26924 0.13661 0.40485-0.06598 1.4061-0.88314 4.3566-3.7881 8.1577-7.8517 10.274-2.4068 1.2533-5.3117 1.8574-7.9674 1.6569zm2.4672-12.348c-0.31267-0.15484-0.48986-0.46818-0.48986-0.86703 0-1.0226-0.5145-2.2051-1.2939-2.9741-0.78105-0.7705-1.9413-1.2755-2.9307-1.2755-0.38104 0-0.72525-0.17905-0.88248-0.45863-0.34165-0.6079 0.11041-1.2861 0.85748-1.2861 1.3132 0 2.7155-0.77744 3.5119-1.9471 0.43379-0.63721 0.73765-1.5855 0.73765-2.3025 0-0.37988 0.17043-0.69554 0.46546-0.86129 0.61175-0.34384 1.2792 0.1187 1.2792 0.88629 0 0.9973 0.50942 2.1603 1.2869 2.9377 0.77976 0.77976 1.9456 1.2869 2.9583 1.2869 0.41665 0 0.71291 0.16479 0.86636 0.48171 0.15319 0.31665 0.15385 0.4638 0.0021 0.77591-0.14655 0.30306-0.4828 0.48711-0.88967 0.48711-0.99723 0-2.1602 0.50943-2.9377 1.2869s-1.2869 1.9404-1.2869 2.9377c0 0.40687-0.18402 0.74295-0.48714 0.88967-0.31002 0.1502-0.46824 0.15053-0.76765 2e-3zm6.9787-8.7234c-0.29576-0.14655-0.4896-0.47066-0.49056-0.821-0.0021-0.62388-0.29046-1.2787-0.78095-1.77-0.48864-0.4896-1.1288-0.77564-1.7443-0.77949-0.33824-2e-3 -0.68672-0.19364-0.83639-0.46002-0.15982-0.28482-0.16114-0.54059-0.0066-0.82057 0.16247-0.28913 0.45767-0.44288 0.92973-0.48413 1.2992-0.11373 2.317-1.1455 2.4194-2.4529 0.03879-0.49616 0.18568-0.78589 0.48257-0.9528 0.27156-0.15252 0.52113-0.1565 0.80174-0.01326 0.29609 0.15219 0.42441 0.40117 0.48479 0.94087 0.06598 0.58864 0.22812 1.015 0.54835 1.441 0.44384 0.59046 1.1325 0.97011 1.8808 1.037 0.5213 0.04675 0.7778 0.18435 0.93042 0.49955 0.15352 0.31665 0.15385 0.46383 0.0021 0.77591-0.14026 0.28946-0.48108 0.48671-0.84355 0.48781-0.59878 0.0021-1.2616 0.29841-1.7451 0.78095-0.4896 0.48864-0.77568 1.1288-0.77952 1.7443-0.0021 0.36327-0.19928 0.70359-0.4885 0.84358-0.31002 0.1502-0.46824 0.15053-0.76772 0.0021z" fill="#000001" stroke-width=".058156"/>
  <path d="m84.746 109.44c-4.0445-0.30538-7.9821-2.3955-10.506-5.5772-1.706-2.1502-2.7181-4.4942-3.1417-7.2756-0.12003-0.78814-0.13727-3.0058-0.02984-3.7688 0.2825-1.9942 0.92409-3.9392 1.8225-5.5248 1.6155-2.8511 4.141-5.1758 6.9947-6.4386 1.1775-0.5211 2.5911-0.94242 3.6778-1.0962 0.49427-0.06996 0.53957-0.06731 0.75224 0.04244 0.30936 0.15982 0.48801 0.43718 0.48801 0.75791 0 0.38611-0.12235 0.55478-0.72932 1.005-2.4222 1.7968-3.9346 4.4919-4.279 7.6252-0.07726 0.70306-0.03614 2.0014 0.08621 2.7277 0.68141 4.0411 3.6498 7.3375 7.5684 8.4051 2.8183 0.76778 5.9013 0.3193 8.4522-1.2293 1.2109-0.73516 2.3983-1.8486 3.1453-2.9494 0.24337-0.35846 0.48121-0.50399 0.82448-0.50425 0.32361-2.32e-4 0.60263 0.17076 0.7587 0.46413 0.14291 0.26924 0.13661 0.40485-0.066 1.4061-0.88314 4.3566-3.7881 8.1577-7.8517 10.274-2.4068 1.2533-5.3117 1.8574-7.9674 1.6569zm2.4672-12.348c-0.31267-0.15484-0.48986-0.46818-0.48986-0.86702 0-1.0226-0.5145-2.2051-1.2939-2.9741-0.78105-0.7705-1.9413-1.2755-2.9307-1.2755-0.38104 0-0.72524-0.17905-0.88248-0.45863-0.34165-0.6079 0.11041-1.2861 0.85748-1.2861 1.3132 0 2.7155-0.77744 3.5119-1.9471 0.43379-0.63721 0.73765-1.5855 0.73765-2.3025 0-0.37988 0.17043-0.69554 0.46546-0.86129 0.61175-0.34384 1.2792 0.1187 1.2792 0.88629 0 0.9973 0.50943 2.1603 1.2869 2.9377 0.77976 0.77976 1.9456 1.2869 2.9583 1.2869 0.41665 0 0.71291 0.16479 0.86636 0.48171 0.15319 0.31665 0.15385 0.4638 0.0021 0.77591-0.14656 0.30306-0.4828 0.48711-0.88967 0.48711-0.99723 0-2.1602 0.50943-2.9377 1.2869s-1.2869 1.9404-1.2869 2.9377c0 0.40687-0.18402 0.74295-0.48714 0.88967-0.31002 0.1502-0.46824 0.15053-0.76765 2e-3zm6.9787-8.7234c-0.29576-0.14656-0.4896-0.47067-0.49056-0.821-0.0021-0.62388-0.29046-1.2787-0.78095-1.77-0.48864-0.4896-1.1288-0.77564-1.7443-0.77949-0.33824-2e-3 -0.68672-0.19364-0.83639-0.46002-0.15982-0.28482-0.16114-0.54059-0.0066-0.82057 0.16247-0.28913 0.45767-0.44288 0.92973-0.48413 1.2992-0.11373 2.317-1.1455 2.4194-2.4529 0.03879-0.49616 0.18568-0.78589 0.48257-0.9528 0.27156-0.15252 0.52113-0.1565 0.80174-0.01326 0.29609 0.15219 0.42441 0.40117 0.48479 0.94087 0.06598 0.58864 0.22812 1.015 0.54835 1.441 0.44384 0.59046 1.1325 0.97011 1.8808 1.037 0.5213 0.04675 0.7778 0.18435 0.93042 0.49954 0.15352 0.31665 0.15385 0.46384 0.0021 0.77591-0.14026 0.28946-0.48108 0.48671-0.84355 0.48781-0.59878 0.0021-1.2616 0.29841-1.7451 0.78095-0.4896 0.48864-0.77568 1.1288-0.77952 1.7443-0.0021 0.36327-0.19927 0.70359-0.4885 0.84358-0.31002 0.1502-0.46824 0.15053-0.76772 0.0021z" fill="#aef" stroke-width=".058156"/>
  <text x="50.385044" y="149.11052" font-family="'Wingdings 2'" font-size="7.7611px" letter-spacing="0px" stroke-width=".26458" style="line-height:1.25" xml:space="preserve"><tspan x="50.385044" y="149.11052" font-family="'Wingdings 2'" stroke-width=".26458"/></text>
  <g>
   <circle cx="37.465" cy="199.69" r="15.52"/>
   <path d="m48.366 200.22-18.695-8.3697 0.95667 6.8706z" fill="#fff"/>
   <path d="m48.379 200.22-18.708 8.0292 0.95667-7.2088z" fill="#fff"/>
   <circle cx="86.615" cy="199.69" r="15.52" fill="#aef"/>
   <path d="m97.516 200.22-18.695-8.3697 0.95667 6.8706z" fill="#000612"/>
   <path d="m97.529 200.22-18.708 8.0292 0.95667-7.2088z" fill="#000612"/>
  </g>
  <path d="m35.984 139.86c-1.5102 0.0836-2.9968 0.52952-4.2852 1.3262v5.1133c1.3189-1.1799 2.9311-2.3548 4.8008-2.1602 1.0635 0.096 1.348 1.4439 0.79521 2.2121-0.92151 1.3611-2.6465 2.1083-3.1462 3.7731-0.39445 1.152-0.29119 2.4351 0.15958 3.5559h4.4844c-0.52943-0.79167-0.96522-1.8777-0.31055-2.7363 1.2082-1.3957 3.0221-2.3488 3.6698-4.1819 0.81073-2.1052 0.24913-4.8772-1.8221-6.0408-1.3018-0.75612-2.8659-0.93309-4.3457-0.86133zm0.23828 14.094c-1.5272 0.0231-2.8928 1.5321-2.4941 3.0684 0.39332 1.8532 2.8089 2.562 4.3242 1.6113 1.5086-0.82481 1.6108-3.2258 0.16016-4.1602-0.57009-0.41838-1.2934-0.56844-1.9902-0.51953z" stroke-width=".85552"/>
  <path d="m22.209 135.09v29.25h29.779v-29.779h-29.779v0.5293z" fill="none" stroke="#000" stroke-width="3.932"/>
  <g>
   <text x="80.912888" y="158.11932" fill="#aaeeff" font-family="'Nirmala UI'" font-size="25.095px" font-weight="bold" letter-spacing="0px" stroke-width=".85552" style="line-height:1.25" xml:space="preserve"><tspan x="80.912888" y="158.11932" fill="#aaeeff" font-family="'Nirmala UI'" font-weight="bold" stroke-width=".85552">?</tspan></text>
   <rect x="72.184" y="134.97" width="28.72" height="28.72" rx="0" ry="0" fill="none" stroke="#aef" stroke-width="3.932"/>
  </g>
  <g>
   <circle cx="35.812" cy="258.34" r="15.52"/>
   <text x="24.278442" y="268.04849" fill="#ffffff" font-family="'Wingdings 2'" font-size="26.855px" letter-spacing="0px" stroke-width=".91551" style="line-height:1.25" xml:space="preserve"><tspan x="24.278442" y="268.04849" fill="#ffffff" stroke-width=".91551">🡆</tspan></text>
  </g>
  <g>
   <circle cx="84.963" cy="258.34" r="15.52" fill="#aef"/>
   <text x="73.866798" y="268.04846" fill="#000612" font-family="'Wingdings 2'" font-size="26.855px" letter-spacing="0px" stroke-width=".91551" style="line-height:1.25" xml:space="preserve"><tspan x="73.866798" y="268.04846" fill="#000612" stroke-width=".91551">🡆</tspan></text>
  </g>
 </g>
</svg>
